<svg xmlns="http://www.w3.org/2000/svg" viewBox="0 0 4494.15 4432.36"><defs><style>.cls-1{fill:#753359;}.cls-2{fill:#7c7b80;}</style></defs><g id="Layer_2" data-name="Layer 2"><g id="Layer_1-2" data-name="Layer 1"><path class="cls-1" d="M1395.64,2764.57q439.69-445.89,882.41-891.15c6.48,2.86,10.38,8.26,14.85,12.76q212.16,213.51,424.13,427.2c93.26,94.35,185.7,189.5,278.53,284.27,4.61,4.7,9.39,9.23,14,13.7,5.73-2.51,6.06-7.46,7.73-11.52q81.36-197.73,162.68-395.48c17.25-41.88,34.74-83.66,52.1-125.49,1.77-4.27,2.81-9,6.92-11.88,5.53-.06,10.11,2.74,14.95,4.75q164.18,68.19,328.33,136.38c23.62,9.82,21.38,5.92,11.81,29.2-77.22,187.88-155.18,375.47-231.58,563.68-67.89,167.24-134.07,335.17-201,502.8-3,7.41-6,14.78-9.29,22.85-6.08-.64-8.84-5.41-12.22-8.92q-77-80-153.8-160.06-90.75-94.47-181.51-188.91-253.47-262.61-510.73-521.52c-4.63-4.67-8.45-10.37-16.28-13.74L1372.47,3350.8c-4.49-.38-6.54-3-8.74-5.39-51.64-55.74-104.15-110.7-154.75-167.38Q996,2939.48,904.47,2632.78a1460.11,1460.11,0,0,1-50.59-242.23c-8.32-67.57-11-135.46-9.85-203.53q4.1-231.8,81-450.44c56.83-160.77,140.36-306.14,253.62-433.91q238.38-268.93,584.64-366c70-19.7,141.24-32.93,213.54-41.1,67.75-7.65,135.62-9.33,203.62-7.58,152.89,3.93,301.79,31.48,447.26,77.95Q2832.4,1031.3,3014,1146.38c5.63,3.55,11.25,7.13,16.91,10.64a53,53,0,0,0,5.09,2.34q181.62-171.54,361.32-347.72c-3.88-7.39-10.27-11.12-15.8-15.45a2057.61,2057.61,0,0,0-183.23-128.45c-134.79-83.63-277.47-150-429.12-196.86a1713.28,1713.28,0,0,0-264.77-59.34c-95.28-13.55-190.94-18.19-287.1-16A1727.45,1727.45,0,0,0,2036,409.46a1885.08,1885.08,0,0,0-327.29,72.23q-333.85,105.52-611.58,318.89A1860,1860,0,0,0,843,1037.46,1774.26,1774.26,0,0,0,630.42,1332,1741.16,1741.16,0,0,0,513,1579a1770.7,1770.7,0,0,0-78.69,266c-11.86,56-20.69,112.54-27.29,169.5a1715,1715,0,0,0-11.58,189.43c-.29,60.62,1.14,121.26,8.12,181.65,3.89,33.72,7.12,67.51,12.07,101.12a1788.9,1788.9,0,0,0,35.62,178.12,1872.84,1872.84,0,0,0,283,617.74,1810,1810,0,0,0,218.87,256.81,1741.48,1741.48,0,0,0,348.57,262.94c120.7,69.27,248,122.89,381.49,162.09a1774.56,1774.56,0,0,0,229.93,51.13c55.32,8.53,110.94,14.35,166.85,18.05,68,4.49,135.9,4.72,203.85,2.12,42.59-1.63,85.08-5.22,127.5-10q79.48-8.92,157.95-24.09a1933.88,1933.88,0,0,0,265.92-71.41A1984.16,1984.16,0,0,0,3534.71,3511a2004.88,2004.88,0,0,0,149.12-153.29c1.31-1.51,2.59-3,4-4.5,4.86-5.14,6.43-5.39,11.6-1q22.11,18.77,44,37.71l233.41,200.83c1.51,1.3,3,2.59,4.52,3.93,11.26,10.19,11.43,10.35,1.3,21.91q-77.13,88.07-162.28,168.38-75.81,71.29-157.32,135.9a2378.75,2378.75,0,0,1-933.55,450.32q-102.15,23.91-206.16,38.24-107,14.73-214.85,20.09c-54.65,2.73-109.28,3.61-163.92,2.14q-100.93-2.73-201.34-14.1a2194.52,2194.52,0,0,1-500.69-116.67q-319.26-115.29-587.21-323.78A2167,2167,0,0,1,610,3754a2216.44,2216.44,0,0,1-200.73-246.14A2250.78,2250.78,0,0,1,131,2970a2225.46,2225.46,0,0,1-75.76-260.57c-14.36-63.66-25.71-127.86-34.62-192.56-7.19-52.17-12.11-104.47-15.78-157-5.67-81.21-6.13-162.47-2.62-243.76,2.35-54.59,7-109,13.59-163.25,5.83-48.26,13-96.34,22.13-144.05q15.75-82.36,37.73-163.41a2144.63,2144.63,0,0,1,307.7-661.59A2239.45,2239.45,0,0,1,906.87,449.27,2359.86,2359.86,0,0,1,1264.5,234.51q251.77-122.22,525.16-182.42c66.41-14.51,133.28-26.3,200.69-34.74A2233.54,2233.54,0,0,1,2291.52.12c58.72.63,117.3,3.53,175.65,9.28a2124,2124,0,0,1,571,137.58c158.13,62.15,307.15,141.43,447.85,236.51a2459.19,2459.19,0,0,1,267.36,209.37c54.55,49,107.09,100.18,156.94,154,14.95,16.14,29.89,32.21,45.91,47.29,6.12,5.77,6.14,7.15.56,13-22.07,23.16-44.13,46.34-66.46,69.26q-204.51,209.85-416.69,411.95-195.87,187.25-392.92,373.25c-21.63,20.5-14.37,20.4-37.64,1.8-48.42-38.7-95.76-78.78-144.88-116.57-147.32-113.34-312.19-190.22-492.84-233.3A1202.58,1202.58,0,0,0,2228,1285.4a1061.55,1061.55,0,0,0-219.56,3.84c-110.11,13.52-215,44.41-312.6,98-125.45,68.79-225.48,164.66-302.37,284.87-69.06,108-113.51,225.62-137.13,351.5-17,90.36-21.44,181.41-14.45,272.75,12.45,162.63,59.62,314.8,142.75,455.49,2,3.43,4.17,6.8,6.5,10C1391.78,2762.81,1393.27,2763.2,1395.64,2764.57Z"/><path class="cls-2" d="M4127.13,3390.41c-5.12-.21-8.62-3.46-12.42-6q-106.46-72.74-212.88-145.52-41.23-28.22-82.38-56.59c-3.84-2.64-7.76-5.17-11.52-7.93-6-4.4-6.29-5.56-2.77-11.21,2.46-4,5.12-7.8,7.72-11.67q134.4-200.58,207.21-430.78A1617.56,1617.56,0,0,0,4077.88,2476q10.78-70.14,16.39-140.82c5.83-75.24,5.75-150.53,2-225.75-2.73-54.49-9.41-108.71-17.81-162.73-19.62-126.26-53.67-248.45-101-367a1675.83,1675.83,0,0,0-160.15-305.72c-3-4.44-6-8.82-8.83-13.34-4.21-6.72-4.13-8,2.87-12.83q42-28.92,84.16-57.54,109.09-74.18,218.22-148.32c19.39-13.23,16.51-11.32,28.15,6.15q189.93,285.17,279.94,615.79a2142.57,2142.57,0,0,1,50.36,240.3c5.79,38.16,9.8,76.59,13.6,115,9.67,97.73,9.86,195.64,6.23,293.56-2,53.23-7.54,106.25-14.16,159.17a2065.53,2065.53,0,0,1-97.22,417.5,2090,2090,0,0,1-242.56,487C4134.74,3381.32,4132.28,3387,4127.13,3390.41Z"/>
    </g>
    </g>
</svg>