<?xml version="1.0" encoding="utf-8"?>
<!-- Generator: Adobe Illustrator 25.4.1, SVG Export Plug-In . SVG Version: 6.00 Build 0)  -->
<svg version="1.1" id="Layer_1" xmlns="http://www.w3.org/2000/svg" xmlns:xlink="http://www.w3.org/1999/xlink" x="0px" y="0px"
	 viewBox="0 0 841.89 595.28" style="enable-background:new 0 0 841.89 595.28;" xml:space="preserve">
<g>
	<path fill="#fff"  d="M405.16,520.11c-5.89-0.88-11.83-1.52-17.67-2.67c-43.52-8.6-77.55-31.55-100.92-69.15
		c-51.3-82.53-13.13-190.34,78.61-222.66c42.47-14.96,83.87-10.93,123.55,10.39c1.52,0.82,3,1.72,4.74,2.74
		c-4.23,7-8.33,13.79-12.59,20.84c-36.46-20.48-74.28-24.14-113.23-8.68c-27.88,11.07-49.01,30.26-63.64,56.45
		c-28.81,51.57-17.23,117.47,27.37,156.42c45.52,39.76,111.7,42.33,159.82,6.49c48.47-36.1,68.51-106.87,33.02-167.36
		c6.79-4.12,13.58-8.25,20.69-12.57c1.11,1.86,2.24,3.6,3.22,5.41c48.41,88.79-1.59,198.82-100.35,220.69
		c-7.38,1.63-14.94,2.46-22.42,3.66C418.64,520.11,411.9,520.11,405.16,520.11z"/>
	<path fill="#fff"  d="M646.96,198.9c-2.15,2.98-3.95,6.29-6.5,8.88c-13.55,13.79-27.38,27.32-40.91,41.12c-4.44,4.52-9.21,6.16-15.49,4.97
		c-9.79-1.85-19.67-3.22-29.55-4.57c-1.34-0.18-3.25,0.46-4.21,1.41c-36.54,36.49-73.02,73.06-109.41,109.71
		c-0.97,0.98-1.41,3.04-1.26,4.51c1.4,13.6-7.16,25.6-20.01,27.79c-13.03,2.22-25.18-5.81-28.3-18.69
		c-4.01-16.56,9.91-31.84,27.3-29.74c2.45,0.3,3.86-0.36,5.47-1.97c36.01-36.15,72.05-72.26,108.14-108.33
		c1.73-1.73,2.42-3.24,1.98-5.84c-1.73-10.07-3.07-20.21-4.6-30.31c-0.72-4.79,0.56-8.8,4.03-12.24
		c14.94-14.87,29.83-29.8,44.73-44.71c3.65-3.65,7.9-5.13,12.95-3.46c5.13,1.7,7.87,5.31,8.64,10.65c1.35,9.37,2.94,18.71,4.24,28.1
		c0.31,2.28,1.09,3.08,3.41,3.39c9.01,1.21,17.96,2.92,26.99,4c5.84,0.7,10.05,3.14,12.38,8.6
		C646.96,194.41,646.96,196.66,646.96,198.9z M608.9,204.7c-6.09-0.97-11.33-1.73-16.54-2.67c-6.2-1.12-9.56-4.56-10.65-10.86
		c-0.88-5.11-1.64-10.23-2.48-15.53c-0.64,0.25-1.04,0.29-1.26,0.51c-7.34,7.29-14.68,14.59-21.96,21.95
		c-0.61,0.62-1.14,1.77-1.03,2.58c1.12,8.11,2.37,16.19,3.59,24.28c5.07,0.81,9.89,1.04,14.36,2.42c8.58,2.65,14.72,0.22,20.24-6.75
		C597.59,215.03,603.21,210.37,608.9,204.7z"/>
	<path fill="#fff"  d="M441.32,288.85c-2.44,7.51-4.9,15.03-7.46,22.92c-17.8-5.15-34.66-3.43-50.34,6.37c-10.78,6.74-18.59,16.1-23.41,27.89
		c-9.65,23.6-3.15,50.85,16.06,67.44c19.53,16.86,47.33,19.42,69.32,6.37c24.02-14.25,33.17-38.5,26.42-70.7
		c7.52-2.58,15.1-5.19,22.66-7.78c10.94,28,4.49,70.36-30.22,95.48c-33.27,24.08-78.67,20.46-108.27-8.52
		c-28.98-28.37-33.3-74.21-10.09-107.58C370.38,285.71,412.66,278.17,441.32,288.85z"/>
</g>
</svg>
