<?xml version="1.0" encoding="utf-8"?>
<!-- Generator: Adobe Illustrator 25.4.1, SVG Export Plug-In . SVG Version: 6.00 Build 0)  -->
<svg version="1.1" id="Layer_1" xmlns="http://www.w3.org/2000/svg" xmlns:xlink="http://www.w3.org/1999/xlink" x="0px" y="0px"
	 viewBox="0 0 841.89 595.28" style="enable-background:new 0 0 841.89 595.28;" xml:space="preserve">
<style type="text/css">
	.st0{fill:#FFFFFF;}
</style>
<g>
	<path fill="#76345A" class="st0" d="M254.44,462.95c0-120.75,0-241.49,0-362.29c127.96,0,255.93,0,384,0c0,127.97,0,255.98,0,384
		c-64.07,0-128.2,0-192.32,0c10.51-4.77,13.43-9.48,12.58-20.18c-1.21-15.29-2.4-30.59-3.61-45.88
		c-1.27-16.09-13.78-29.66-29.72-32.06c-7.39-1.12-14.81-2.1-22.24-2.98c-2.48-0.29-4.08-1.08-4.9-3.66
		c-1.14-3.55-2.89-6.91-3.99-10.46c-0.39-1.25-0.13-3.29,0.68-4.22c7.93-9.09,12.11-19.66,12.82-31.62
		c0.11-1.94,0.74-2.69,2.64-3.29c10.5-3.32,16.19-10.92,16.47-21.89c0.14-5.49,0.14-10.98,0.03-16.47
		c-0.2-9.59,0.3-19.29-0.95-28.75c-4.47-33.82-35.88-62.48-75.84-59.38c-34.25,2.66-62.79,32.78-63.56,68.35
		c-0.26,11.97-0.17,23.96-0.04,35.93c0.13,11.19,5.83,18.83,16.51,22.22c1.94,0.62,2.48,1.44,2.59,3.34
		c0.47,8.74,2.9,16.91,7.53,24.39c2.15,3.48,5.82,6.84,6.07,10.45c0.26,3.81-2.52,7.94-4.39,11.72c-0.68,1.38-2.43,2.85-3.9,3.11
		c-6.26,1.1-12.58,1.85-18.9,2.56c-18.25,2.05-31.27,13.98-33.55,31.31c-0.96,7.28-1.15,14.67-1.79,22
		C255.97,447.11,255.18,455.03,254.44,462.95z M537.58,305.82c2.54-0.21,7.55-0.34,12.47-1.09c57.13-8.67,95.24-60.72,86.33-117.78
		c-9.24-59.21-69.86-98.18-127.56-82c-65.02,18.24-94.97,90.77-61.9,149.74c0.76,1.36,0.87,3.56,0.37,5.07
		c-1.88,5.67-4.17,11.2-6.23,16.81c-2.45,6.67-1.62,12.86,3.49,17.98c5.11,5.11,11.29,5.98,17.97,3.53
		c5.26-1.93,10.56-3.79,15.72-5.96c2.64-1.11,4.68-0.99,7.23,0.47C500.82,301.39,517.45,305.63,537.58,305.82z"/>
	<path fill="#76345A"   d="M254.44,462.95c0.74-7.93,1.53-15.85,2.21-23.78c0.63-7.33,0.83-14.71,1.79-22c2.28-17.33,15.3-29.26,33.55-31.31
		c6.32-0.71,12.64-1.46,18.9-2.56c1.47-0.26,3.22-1.73,3.9-3.11c1.87-3.79,4.65-7.92,4.39-11.72c-0.25-3.61-3.91-6.97-6.07-10.45
		c-4.63-7.47-7.06-15.65-7.53-24.39c-0.1-1.9-0.65-2.72-2.59-3.34c-10.69-3.39-16.39-11.03-16.51-22.22
		c-0.13-11.98-0.22-23.96,0.04-35.93c0.77-35.56,29.3-65.69,63.56-68.35c39.96-3.1,71.37,25.56,75.84,59.38
		c1.25,9.46,0.76,19.16,0.95,28.75c0.11,5.49,0.12,10.98-0.03,16.47c-0.29,10.97-5.97,18.57-16.47,21.89
		c-1.9,0.6-2.52,1.35-2.64,3.29c-0.7,11.96-4.88,22.53-12.82,31.62c-0.81,0.93-1.07,2.97-0.68,4.22c1.1,3.56,2.85,6.92,3.99,10.46
		c0.83,2.58,2.42,3.37,4.9,3.66c7.43,0.88,14.84,1.86,22.24,2.98c15.94,2.41,28.46,15.97,29.72,32.06
		c1.2,15.29,2.39,30.59,3.61,45.88c0.85,10.7-2.07,15.4-12.58,20.18c-59.65,0-119.3,0-178.95,0c-6.34-2.15-10.59-6.38-12.73-12.73
		C254.44,468.94,254.44,465.95,254.44,462.95z M356.67,425.08c-3.57,4.75-6.77,9.05-10,13.31c-5.55,7.32-12.03,7.72-18.57,1.18
		c-12.61-12.61-25.27-25.18-37.8-37.87c-1.81-1.84-3.32-2.06-5.54-1.02c-8.12,3.82-12.96,10.11-13.76,19.03
		c-1.39,15.52-2.48,31.07-3.68,46.6c-0.35,4.48,0.66,5.59,5.18,5.59c56.13,0.01,112.26,0.01,168.39,0c4.38,0,5.43-1.05,5.11-5.3
		c-1.19-15.79-2.26-31.59-3.76-47.35c-0.83-8.74-5.74-14.9-13.75-18.62c-2.26-1.05-3.74-0.69-5.51,1.11
		c-12.71,12.87-25.5,25.65-38.34,38.39c-5.85,5.81-12.55,5.3-17.57-1.24C363.67,434.46,360.34,429.96,356.67,425.08z M358.86,369.59
		c12.15-0.38,23.16-6.59,30.73-18.74c4.59-7.36,5.65-15.55,5.51-24.05c-0.1-6.08,1.95-8.08,7.93-8.28c0.87-0.03,1.76-0.01,2.61-0.15
		c5.12-0.88,8.58-4.97,8.4-9.86c-0.19-5-3.82-8.59-9.17-9.02c-0.99-0.08-2-0.02-2.99-0.1c-4.63-0.34-6.71-2.49-6.8-7.17
		c-0.07-3.86,0.12-7.74-0.08-11.59c-0.3-5.82-4.06-9.07-9.86-8.68c-2.61,0.17-5.2,0.61-7.8,0.86c-16.19,1.52-32.35,1.21-48.5-0.77
		c-6.65-0.81-10.38,2.72-10.56,9.42c-0.1,3.86,0.4,7.8-0.23,11.56c-0.35,2.11-2.1,4.38-3.87,5.73c-1.26,0.96-3.59,0.55-5.45,0.69
		c-5.54,0.4-9.31,4.03-9.47,9.14c-0.16,5.02,3.54,9.13,8.85,9.84c10.06,1.35,10.06,1.35,10.14,11.44c0.01,0.62,0,1.25,0.03,1.87
		C319.24,353.38,335.71,369.62,358.86,369.59z M305.49,286.67c0-1.72-0.01-3.2,0-4.69c0.1-14.78,10.1-23.93,24.79-22.7
		c6.58,0.55,13.17,1.61,19.74,1.51c11.45-0.16,22.89-0.94,34.33-1.65c11.8-0.73,21.23,6.51,23.11,18.2c0.49,3.04,0.4,6.18,0.58,9.38
		c1.93,0.59,3.79,1.15,5.98,1.82c0-6.12,0.13-11.97-0.05-17.81c-0.1-3.09-0.49-6.23-1.18-9.25c-7.17-31.3-38.03-51.11-68.64-43.7
		c-32.07,7.76-49.25,35.79-44.38,70.64C301.55,287.87,303.32,287.33,305.49,286.67z M326.2,386.39
		c10.27,6.84,20.38,13.58,30.48,20.32c10.32-6.88,20.35-13.58,30.46-20.32c-1.57-3.83-3-7.33-4.48-10.97
		c-17.52,9.36-34.67,9.29-52.04-0.04C329.12,379.12,327.7,382.65,326.2,386.39z M365.81,415.96c3.77,5,7.19,9.54,10.18,13.5
		c10.97-10.96,21.68-21.67,32.35-32.33c-2.54-0.38-5.45-0.91-8.39-1.21c-1.42-0.15-3.22-0.39-4.28,0.29
		C385.73,402.63,375.93,409.23,365.81,415.96z M304.7,397.16c10.84,10.92,21.51,21.67,32.4,32.63c3.34-4.45,6.76-9,10.4-13.84
		c-10.09-6.71-20.02-13.35-30-19.89c-0.72-0.47-1.91-0.42-2.85-0.3C311.31,396.16,308,396.69,304.7,397.16z"/>
	<path fill="#76345A"  class="st0" d="M254.44,471.94c2.14,6.35,6.39,10.58,12.73,12.73c-4.24,0-8.49,0-12.73,0
		C254.44,480.42,254.44,476.18,254.44,471.94z"/>
	<path fill="#76345A"  d="M537.58,305.82c-20.13-0.2-36.76-4.44-52.12-13.23c-2.55-1.46-4.59-1.58-7.23-0.47c-5.16,2.17-10.46,4.04-15.72,5.96
		c-6.69,2.45-12.86,1.58-17.97-3.53c-5.12-5.12-5.95-11.3-3.49-17.98c2.06-5.61,4.36-11.14,6.23-16.81c0.5-1.51,0.4-3.71-0.37-5.07
		c-33.06-58.98-3.12-131.5,61.9-149.74c57.69-16.18,118.31,22.79,127.56,82c8.91,57.06-29.2,109.11-86.33,117.78
		C545.13,305.49,540.12,305.61,537.58,305.82z M537.36,293.08c2.59-0.23,7.11-0.35,11.52-1.07c50.13-8.14,82.89-53.65,74.75-103.73
		c-7.98-49.14-57.47-82.87-106.09-72.3c-61.58,13.38-90.62,81.59-57.57,135.35c1.89,3.07,2.16,5.85,0.83,9.15
		c-2.59,6.47-5.06,13-7.28,19.61c-0.55,1.64-0.56,4.16,0.36,5.36c0.67,0.88,3.46,0.74,5.02,0.22c6.49-2.19,12.94-4.53,19.25-7.16
		c3.72-1.55,6.75-1.22,10.16,0.94C502.68,288.56,518.49,292.86,537.36,293.08z"/>
	<path fill="#76345A"  d="M541.94,222.37c0,2.23,0.1,4.45-0.02,6.67c-0.21,3.88-2.81,6.41-6.4,6.39c-3.6-0.02-6.15-2.56-6.28-6.49
		c-0.12-3.61-0.05-7.24-0.03-10.85c0.03-5.81,1.97-7.85,7.74-8.19c18.34-1.08,29.62-20.43,21.48-36.84
		c-4.91-9.91-15.74-15.56-26.69-13.93c-11,1.63-19.77,10.48-21.38,21.57c-0.18,1.23-0.29,2.48-0.43,3.71
		c-0.47,4.18-3.06,6.54-6.85,6.26c-3.52-0.27-5.96-3-5.84-6.94c0.27-9.02,3.19-17.11,9.08-24.01c10.85-12.7,28.24-17.02,43.48-10.88
		c14.92,6.02,24.85,21.15,24.1,36.72c-0.82,17.11-11.8,31.09-28.07,35.72C544.64,221.62,543.46,221.94,541.94,222.37z"/>
	<path fill="#76345A"  d="M535.69,248.22c3.49,0.07,6.36,3.12,6.23,6.62c-0.13,3.59-3.02,6.25-6.66,6.1c-3.46-0.14-6.07-2.86-6.04-6.32
		C529.25,251.14,532.26,248.15,535.69,248.22z"/>
</g>
</svg>
