<?xml version="1.0" encoding="utf-8"?>
<!-- Generator: Adobe Illustrator 25.4.1, SVG Export Plug-In . SVG Version: 6.00 Build 0)  -->
<svg width="120" height="100" version="1.1" id="Layer_1" xmlns="http://www.w3.org/2000/svg" xmlns:xlink="http://www.w3.org/1999/xlink"  x="0px" y="0px"
	 viewBox="0 0 841.89 595.28" style="enable-background:new 0 0 841.89 595.28;" xml:space="preserve">
<g>
	<path fill="#ffffff" d="M173.42,107c6.74,0.44,13.56,0.37,20.21,1.42c14.47,2.3,26.41,9.66,36.92,19.65c33.63,31.97,67.33,63.86,101.01,95.78
		c5.12,4.85,10.26,9.67,15.7,14.8c1.21-1.92,2.24-3.52,3.24-5.14c21.53-34.76,43.16-69.46,64.57-104.29
		c18.1-29.46,43.92-47.3,78.15-52.74c3.65-0.58,7.37-0.75,11.06-1.04c1.26-0.1,2.54-0.02,4.56-0.02c0,2.69,0,5.2,0,7.7
		c0,2.55,0,5.09,0,7.15c-9.14,1.7-17.95,2.68-26.38,5.02c-20.8,5.77-37.58,17.82-49.39,35.8c-13.96,21.25-27.01,43.1-40.31,64.78
		c-0.81,1.32-0.87,3.74-0.23,5.19c8.22,18.88,16.56,37.7,25.1,56.44c0.76,1.67,2.99,3.47,4.77,3.77
		c22.37,3.77,44.79,7.31,67.22,10.76c1.3,0.2,3.19-0.52,4.15-1.48c23.19-23.06,46.29-46.21,69.4-69.35c0.22-0.22,0.31-0.56,0.6-1.1
		c-26.77-11.48-33.43-33.56-30.62-60.72c-8.39,0-16.02,0-23.98,0c0-5.49,0-10.4,0-15.84c7.56,0,15.21,0,23.23,0
		c0.41-3.27,0.61-6.12,1.15-8.9c4.5-23.3,25.07-40.06,48.15-39.32c24.19,0.78,44.01,18.27,46.19,42.36
		c1.27,14.05,0.68,28.32,0.18,42.46c-0.37,10.29-5,19.19-11.81,26.91c-0.63,0.72-1.21,1.48-1.8,2.24c-0.09,0.11-0.07,0.3-0.15,0.63
		c1.58,0.69,3.19,1.37,4.79,2.1c17.07,7.75,28.56,20.58,32.56,38.87c5.88,26.87,10.84,53.94,16.06,80.95
		c0.67,3.44,0.71,7.04,0.72,10.57c0.04,71.05,0.03,142.1,0.03,213.16c0,12.84-6.08,18.91-18.97,18.91
		c-37.7,0.01-75.4,0.04-113.1-0.02c-13.91-0.02-23.25-11.67-18.39-23.67c1.66-4.09,5.58-7.84,9.39-10.35
		c5.73-3.78,12.41-6.1,18.39-9.55c2.03-1.17,3.97-3.71,4.55-5.97c1.82-7.12,2.97-14.41,4.5-22.22c-58.04,0-115.47,0-173.72,0
		c0-6.84-0.03-13.21,0.01-19.58c0.08-13.29-1.56-26.28-5.55-39.03c-15.4-49.2-66.41-82.42-117.5-76.73
		c-28.09,3.13-51.65,14.92-70.98,35.41c-4.52,4.79-9.11,9.52-13.66,14.28C173.42,300.38,173.42,203.69,173.42,107z M303.52,335.27
		c1.69,0.64,2.99,1.19,4.33,1.64c39.13,13.29,66.21,39.2,81.12,77.71c1.2,3.11,2.65,4.04,5.89,4.04c54.6-0.1,109.2-0.07,163.8-0.09
		c1.38,0,2.77-0.2,3.59-0.27c0-10.2,0.09-20-0.03-29.79c-0.08-6.75-1.86-8.87-8.49-10.09c-29.42-5.42-58.85-10.84-88.3-16.05
		c-3.56-0.63-4.81-1.76-4.74-5.48c0.24-12.24,0.09-24.48,0.09-36.72c0-1.69,0-3.37,0-5.47c26.47,0,52.13,0,78.62,0
		c-9.12-13.12-20.64-21.41-35.58-23.95c-32.03-5.46-64.17-10.3-96.23-15.61c-28.42-4.71-56.74-10.03-85.8-8.3
		c-3.99,0.24-5.12,1.31-5.27,5.21c-0.67,17.46-3.99,34.48-9.11,51.17C306.2,327.17,304.87,331.09,303.52,335.27z M189.93,258.96
		c0,33.28,0,66.05,0,99.36c29.34-21.96,61.51-30.85,97.43-26.09c8.12-21,12.69-42.47,13.53-65.26c-2.27,0-4.02,0-5.77,0
		c-19.64,0-39.28-0.08-58.93,0.04c-7.84,0.05-14.99-1.58-21.1-6.75c-0.7-0.59-1.65-1.23-2.49-1.24
		C205.08,258.92,197.56,258.96,189.93,258.96z M550.55,300.28c4.06,9.28,8.03,17.49,11.19,26.01c1.16,3.13,2.11,4.3,5.53,4.16
		c28.16-1.21,55.03-7.72,80.88-18.84c2.62-1.13,3.11-2.48,2.56-5.16c-4.25-20.81-8.38-41.64-12.49-62.47
		c-1.75-8.88-3.44-17.78-9.54-24.94c-2.37-2.78-5.16-5.2-7.76-7.79c1.28,13.7-4.23,23.37-13.21,32.12
		C588.22,262.35,569.11,281.75,550.55,300.28z M606.99,342.16c10.69,51.41,14.46,103.59,13.45,156.09c11.12,0,21.36,0,31.65,0
		c0-57.03,0-113.75,0-170.22C637.13,332.72,622.45,337.32,606.99,342.16z M563.99,435.02c-56.95,0-112.95,0-168.6,0
		c0.7,10.67,1.37,21.03,2.05,31.33c55.77,0,111.29,0,166.55,0C563.99,455.8,563.99,445.56,563.99,435.02z M591.13,344.5
		c-9.05,0.84-17.61,1.63-26.38,2.44c0,5.49-0.15,10.48,0.1,15.45c0.07,1.31,1.07,3,2.17,3.75c7.39,5.02,11.01,12.03,11.28,20.8
		c0.79,26.25,1.5,52.5,2.25,78.76c0.16,5.74-2.14,10.25-6.61,13.81c-1.17,0.94-2.46,2.26-2.79,3.62c-1.19,4.95-2,10-2.99,15.18
		c12.25,0,24.1,0,36.31,0C605.6,446.44,601.71,395.29,591.13,344.5z M189.45,122.9c0,6.73-0.12,11.84,0.11,16.94
		c0.04,0.92,1.35,1.94,2.28,2.63c5.23,3.94,11.06,7.25,15.7,11.77c18.11,17.65,36.13,35.4,53.65,53.63
		c14.68,15.28,30.64,28.94,47.95,41.08c1.16,0.81,2.47,1.93,3.74,1.96c7.63,0.18,15.27,0.09,22.91,0.09c0.31-0.5,0.62-1,0.94-1.5
		c-1.21-0.76-2.58-1.34-3.6-2.3c-36.86-34.86-73.66-69.78-110.58-104.58c-4.66-4.4-9.56-8.76-15.01-12.04
		C202.32,127.43,196.24,125.71,189.45,122.9z M512.04,275.18c9.15,4.77,17.91,9.35,27.02,14.1c17.08-17.09,34.6-34.6,52.11-52.13
		c3.18-3.19,6.47-6.28,9.48-9.63c3.99-4.44,5.12-9.64,2.82-15.23c-2.19-5.35-6.36-8.4-12.11-9.07c-5.23-0.61-9.27,1.71-12.86,5.31
		c-21.59,21.65-43.22,43.25-64.83,64.88C512.99,274.07,512.38,274.8,512.04,275.18z M548.73,139.42c0,6.39-0.34,12.2,0.06,17.95
		c1.1,15.68,12.99,27.77,28.77,29.65c14.26,1.7,29.27-7.51,33.08-21.85c2.16-8.15,1.74-16.98,2.51-25.75
		C590.94,139.42,570.08,139.42,548.73,139.42z M239.07,211.07c-16.26-16.27-33.04-33.05-49.67-49.68c0,6.49,0,13.84,0,21.18
		c0,18.66-0.02,37.32,0.03,55.98c0.01,1.89-0.83,4.53,2.63,4.52c4.3-0.01,8.61,0,13.24,0c-0.42-10.11,2.31-18.52,9.65-25.12
		C222.33,211.33,231.39,210.8,239.07,211.07z M549.06,361.25c-0.47-9-0.94-17.32-1.31-25.64c-0.16-3.62-1.76-4.82-5.48-4.79
		c-20.28,0.18-40.57,0.08-60.85,0.1c-1.38,0-2.77,0.22-4.51,0.37c0,4.97-0.2,9.62,0.15,14.24c0.09,1.14,1.84,2.86,3.06,3.09
		C502.71,352.87,525.33,356.94,549.06,361.25z M612.12,123.06c1.19-16.85-13.74-31.67-31.53-31.64
		c-17.58,0.03-32.82,15.22-31.45,31.64C569.99,123.06,590.86,123.06,612.12,123.06z M283.81,251.04
		c-8.37-7.72-16.24-15.04-24.2-22.26c-0.98-0.88-2.45-1.7-3.7-1.72c-7.72-0.13-15.47-0.3-23.18,0.08
		c-6.78,0.33-11.35,5.61-11.28,12.1c0.08,6.46,4.86,11.38,11.67,11.73c3.85,0.2,7.73,0.06,11.59,0.06
		C257.69,251.04,270.67,251.04,283.81,251.04z M588.31,536.88c0.23,0.41,0.46,0.83,0.69,1.24c20.99,0,41.97,0,63.13,0
		c0-7.91,0-15.52,0-23.62c-10.46,0-20.56-0.05-30.67,0.09c-1,0.01-2.08,1.11-2.97,1.88c-3.58,3.07-6.78,6.71-10.71,9.2
		c-4.99,3.17-10.6,5.36-15.85,8.13C590.56,534.52,589.51,535.83,588.31,536.88z M380.96,214.69c-7.61,12.31-14.67,23.74-22.45,36.33
		c14.28,2.32,27.54,4.48,41.61,6.77C393.59,243.08,387.46,229.3,380.96,214.69z M592.45,515.68c-0.1-0.39-0.2-0.78-0.3-1.17
		c-8.64,0-17.28-0.05-25.92,0.07c-0.9,0.01-1.85,0.96-2.66,1.63c-3.77,3.1-7.21,6.73-11.32,9.28c-5.17,3.21-10.9,5.5-16.31,8.35
		c-1.28,0.68-2.21,2.02-3.3,3.05c0.22,0.36,0.44,0.71,0.66,1.07c13.06,0,26.13,0,39.38,0C572.11,524.09,582.77,520.32,592.45,515.68
		z"/>
	<path fill="#ffffff" d="M173.42,449.28c2.95-10.3,4.75-21.12,9.05-30.82c17.46-39.37,58.89-60.83,102.85-54.14c40.61,6.18,73.18,39.78,78.75,81.23
		c7.09,52.74-29.66,101.2-81.92,108.03c-52.98,6.93-100.72-29.67-107.89-82.69c-0.15-1.1-0.56-2.16-0.84-3.24
		C173.42,461.53,173.42,455.41,173.42,449.28z M244.15,399.34c-4.74,2.71-9.14,5.22-13.68,7.81c-2.81-4.64-5.33-8.82-8.51-14.07
		c-6.5,6.23-12.37,11.86-18.81,18.04c6.05,3.58,10.27,6.08,14.7,8.7c-2.76,4.77-5.31,9.16-7.94,13.7
		c-4.66-2.65-8.81-5.02-13.98-7.97c-2.27,8.53-4.36,16.41-6.67,25.09c6.1,0,10.87,0,15.78,0c0,5.56,0,10.61,0,16.21
		c-5.17,0-10.04,0-15.83,0c2.35,8.56,4.49,16.35,6.81,24.76c5.19-2.96,9.34-5.33,13.91-7.94c2.66,4.6,5.21,9.01,7.93,13.72
		c-4.43,2.63-8.65,5.13-14.53,8.63c6.44,6.41,12.18,12.12,18.58,18.49c3.39-5.77,5.88-10,8.54-14.52c4.75,2.73,9.15,5.26,13.74,7.9
		c-2.6,4.59-4.96,8.76-7.92,14c8.43,2.19,16.36,4.25,25.2,6.54c0-6.14,0-10.87,0-15.48c5.54,0,10.45,0,15.84,0
		c0,4.95,0,9.55,0,15.46c8.7-2.28,16.61-4.35,24.94-6.54c-2.97-5.24-5.33-9.4-7.89-13.92c4.64-2.69,9.03-5.25,13.69-7.95
		c2.7,4.55,5.2,8.78,8.25,13.92c6.29-6.38,12.04-12.22,18.15-18.43c-5.29-3.1-9.42-5.52-13.82-8.1c2.76-4.75,5.3-9.13,7.97-13.72
		c4.61,2.62,8.76,4.98,13.95,7.93c2.27-8.56,4.37-16.44,6.69-25.18c-6.17,0-11.07,0-15.87,0c0-5.5,0-10.42,0-16.01
		c5.16,0,10.03,0,15.9,0c-2.38-8.68-4.51-16.46-6.77-24.71c-5.26,2.92-9.53,5.29-13.97,7.75c-2.78-4.8-5.26-9.09-7.88-13.63
		c4.56-2.7,8.77-5.19,13.88-8.21c-6.32-6.29-12.15-12.08-18.35-18.26c-3.02,5.17-5.44,9.31-8.1,13.87
		c-4.66-2.7-9.04-5.24-13.67-7.92c2.56-4.62,4.94-8.92,7.84-14.16c-8.56-2.18-16.47-4.2-25.31-6.45c0,6.29,0,11.03,0,15.75
		c-5.51,0-10.4,0-15.78,0c0-5.13,0-9.89,0-15.79c-8.58,2.29-16.41,4.38-24.85,6.63C239.14,390.38,241.48,394.56,244.15,399.34z"/>
	<path fill="#ffffff" d="M309.05,458.65c-0.03,22.09-17.94,39.96-39.98,39.89c-21.96-0.07-39.76-18.13-39.66-40.23
		c0.1-21.82,17.91-39.58,39.75-39.65C291.14,418.59,309.07,436.57,309.05,458.65z M269.25,434.73
		c-13.21-0.01-23.99,10.7-24.02,23.85c-0.02,13.13,10.77,23.88,23.98,23.88c13.22,0,24-10.71,24-23.84
		C293.22,445.46,282.47,434.74,269.25,434.73z"/>
	<path fill="#ffffff" d="M261.6,450.83c5.17,0,10.06,0,15.25,0c0,5.19,0,10.1,0,15.41c-4.97,0-9.98,0-15.25,0
		C261.6,461.13,261.6,456.11,261.6,450.83z"/>
</g>
</svg>
