<svg width="90" height="70" viewBox="0 0 90 70" fill="none" xmlns="http://www.w3.org/2000/svg">
    <path d="M44.4316 0.0273138C33.9492 -0.126368 19.3882 0.0982461 16.3905 8.15135L9.02479 25.4355C8.69764 25.0624 8.26945 24.792 7.79195 24.657L4.82639 23.8227C4.50033 23.7302 4.15919 23.7029 3.82257 23.7426C3.48596 23.7823 3.16049 23.888 2.86485 24.0538C2.56922 24.2196 2.30924 24.4421 2.09985 24.7087C1.89045 24.9752 1.73577 25.2805 1.64467 25.6069L0.0977168 31.1006C0.00519466 31.4268 -0.0219911 31.768 0.0177226 32.1046C0.0574362 32.4413 0.163266 32.7668 0.329134 33.0624C0.495003 33.3581 0.71764 33.618 0.984263 33.8274C1.25089 34.0367 1.55624 34.1914 1.88279 34.2824L4.84919 35.1166C4.94883 35.1445 5.04679 35.1538 5.14643 35.169C4.57983 36.5817 4.22602 38.1354 4.22602 39.06V59.1476C4.22602 60.1778 4.65667 60.654 5.34402 60.8778V66.2297C5.34312 66.7046 5.43603 67.175 5.61739 67.614C5.79875 68.0529 6.065 68.4517 6.40086 68.7875C6.73673 69.1233 7.13559 69.3894 7.57457 69.5707C8.01355 69.7519 8.484 69.8447 8.95892 69.8437H18.6586C19.1335 69.8446 19.6038 69.7517 20.0427 69.5704C20.4816 69.3891 20.8804 69.1229 21.2161 68.7872C21.5519 68.4514 21.8181 68.0526 21.9994 67.6138C22.1807 67.1749 22.2736 66.7045 22.2727 66.2297V61.0737H67.7271V66.2297C67.7263 66.7046 67.8193 67.1751 68.0008 67.614C68.1823 68.053 68.4486 68.4518 68.7845 68.7875C69.1204 69.1233 69.5194 69.3895 69.9584 69.5707C70.3974 69.7519 70.8679 69.8447 71.3429 69.8437H81.0409C81.5159 69.8448 81.9865 69.7521 82.4256 69.5709C82.8647 69.3897 83.2638 69.1236 83.5998 68.7878C83.9358 68.452 84.2022 68.0532 84.3837 67.6142C84.5652 67.1752 84.6583 66.7047 84.6575 66.2297V60.8778C85.344 60.654 85.7738 60.177 85.7738 59.1468V39.0609C85.7738 38.1362 85.42 36.5825 84.8534 35.1698C84.953 35.1546 85.051 35.1445 85.1506 35.1175L88.1179 34.2832C88.4443 34.1921 88.7496 34.0374 89.0161 33.828C89.2827 33.6186 89.5052 33.3587 89.671 33.063C89.8368 32.7674 89.9425 32.4419 89.9822 32.1053C90.0219 31.7687 89.9946 31.4276 89.9021 31.1015L88.3568 25.6078C88.2655 25.2812 88.1107 24.9759 87.9011 24.7094C87.6916 24.4428 87.4314 24.2203 87.1357 24.0545C86.8399 23.8888 86.5143 23.783 86.1776 23.7434C85.8408 23.7037 85.4996 23.731 85.1734 23.8235L82.2079 24.6578C81.7304 24.7929 81.3022 25.0633 80.975 25.4364L73.6093 8.1522C70.3963 -0.0225046 54.9141 0.182684 44.4316 0.0290017V0.0273138ZM74.4537 26.5273C74.6276 27.0458 74.1058 27.3903 73.5594 27.4224C73.5594 27.4224 71.7735 27.5744 69.3112 27.7728C67.4375 23.3946 63.0829 20.31 58.0384 20.31C52.5033 20.31 47.8033 24.0271 46.2961 29.0884C45.8781 29.0943 45.3926 29.1112 45.0041 29.1112C35.4682 29.1112 16.4404 27.4224 16.4404 27.4224C15.894 27.3903 15.3722 27.0458 15.5461 26.5273C22.8748 4.18855 23.0926 5.86723 44.5937 6.10198C66.0957 6.33672 66.2207 4.74079 74.4537 26.5273ZM58.0384 24.532C59.366 24.5273 60.6739 24.8532 61.8441 25.4804C63.0143 26.1075 64.01 27.016 64.7413 28.1241C60.4348 28.4433 55.4781 28.7701 50.8592 28.9601C51.5238 27.6258 52.5483 26.5041 53.8169 25.7216C55.0856 24.9391 56.5478 24.527 58.0384 24.532ZM8.46663 31.7821C8.53165 31.8775 8.59498 31.9738 8.66676 32.0675H8.3881L8.46663 31.7821ZM13.2316 37.3923C15.118 37.3611 25.245 40.77 25.245 40.77C26.5091 41.1254 27.6229 43.5168 27.6161 44.8307C27.5975 49.2554 16.1778 47.7203 11.5428 47.738C11.2312 47.7388 10.9225 47.678 10.6344 47.5591C10.3463 47.4402 10.0846 47.2656 9.86416 47.0453C9.64376 46.825 9.46905 46.5633 9.35008 46.2753C9.2311 45.9872 9.1702 45.6785 9.17087 45.3669V39.7643C9.17087 38.4504 11.3452 37.4236 13.2316 37.3923ZM76.7699 37.3923C78.6563 37.4236 80.8306 38.4504 80.8306 39.7643V45.3669C80.8313 45.6785 80.7704 45.9872 80.6514 46.2753C80.5324 46.5633 80.3577 46.825 80.1373 47.0453C79.9169 47.2656 79.6552 47.4402 79.3671 47.5591C79.079 47.678 78.7703 47.7388 78.4587 47.738C73.8229 47.7203 62.404 49.2554 62.3854 44.8307C62.3786 43.5168 63.4916 41.1254 64.7565 40.77C64.7565 40.77 74.8835 37.3611 76.7699 37.3923Z" fill="white"/>
</svg>
