<?xml version="1.0" encoding="utf-8"?>
<!-- Generator: Adobe Illustrator 25.4.1, SVG Export Plug-In . SVG Version: 6.00 Build 0)  -->
<svg width="140" height="100"  version="1.1" id="Layer_1" xmlns="http://www.w3.org/2000/svg" xmlns:xlink="http://www.w3.org/1999/xlink" x="0px" y="0px"
	 viewBox="0 0 841.89 595.28" style="enable-background:new 0 0 841.89 595.28;" xml:space="preserve">
<g>
	<path fill="#ffffff" d="M247.67,479.93c-8.05-3.21-10.64-9.23-10.6-17.69c0.25-43.03,0.09-86.07,0.17-129.1c0-2.42,0.31-5.09,1.35-7.22
		c4.91-10.05,10.11-19.96,15.25-29.9c0.61-1.19,1.43-2.27,2.38-3.75c-5.9-1.33-11.46-2.57-17.01-3.85
		c-7.96-1.84-11.71-6.83-11.65-15.45c0.05-8.31,3.91-13.34,11.79-14.93c6.24-1.26,12.51-2.38,18.81-3.26
		c6.66-0.93,11.22,2.31,14.4,8.49c0.8-1.37,1.44-2.34,1.97-3.37c6.6-12.86,13.35-25.65,19.72-38.62
		c4.99-10.15,12.82-15.37,24.11-16.18c18.19-1.31,36.35-3,54.52-4.53c0.75-0.06,1.5-0.17,2.24-0.15c3.43,0.11,5.83,2.25,6.08,5.4
		c0.26,3.23-1.6,5.87-5.03,6.32c-4.82,0.63-9.7,0.84-14.56,1.26c-14.93,1.29-29.87,2.55-44.79,3.94c-5.46,0.51-8.91,3.75-11.41,8.55
		c-11.38,21.89-22.86,43.73-34.44,65.52c-2.04,3.83-4.74,7.31-7.08,10.99c-1.94,3.05-3.83,6.13-5.69,9.23
		c-6.39,10.68-9.95,21.85-9.24,34.7c0.87,15.66,0.21,31.4,0.21,47.74c1.87,0,3.55,0,5.23,0c86.49,0,172.98,0,259.46,0.01
		c1.61,0,3.28-0.03,4.83,0.34c3.09,0.75,4.59,2.95,4.38,6.08c-0.21,3.15-2.03,5.03-5.18,5.42c-1.6,0.19-3.24,0.12-4.87,0.12
		c-86.24,0-172.48,0-258.71,0c-1.59,0-3.18,0-4.69,0c-2.29,14.3,6.24,25.05,20.95,26.72c2.96,0.34,5.99,0.22,8.98,0.22
		c86.61,0.01,173.23,0.03,259.84-0.06c4.93-0.01,10.09-0.24,14.75-1.65c11.82-3.58,16.99-12.23,15.6-25.05
		c-1.26-0.06-2.59-0.17-3.91-0.17c-10.25-0.01-20.5,0.01-30.75-0.02c-4.77-0.01-7.51-2.24-7.49-5.94c0.02-3.64,2.86-5.99,7.55-6.01
		c10.12-0.05,20.25-0.02,30.37-0.02c1.35,0,2.7,0,4.34,0c0.07-1.57,0.17-2.78,0.17-3.99c0.01-18.46,0.04-36.92-0.04-55.38
		c-0.01-1.94-0.23-4.1-1.09-5.77c-5.09-9.82-10.34-19.55-15.67-29.25c-2.4-4.36-5.32-8.45-7.58-12.88
		c-1.41-2.74-3.15-3.53-6.13-3.52c-80.61,0.08-161.23,0.06-241.84,0.06c-1.62,0-3.26,0.05-4.87-0.15c-3.21-0.4-4.94-2.51-5.07-5.55
		c-0.14-3.05,1.46-5.31,4.59-5.95c1.69-0.35,3.47-0.32,5.22-0.32c78.11-0.01,156.23-0.01,234.34-0.01c1.48,0,2.96,0,5.23,0
		c-2.88-5.49-5.52-10.37-7.99-15.34c-0.75-1.52-1.84-3.64-1.31-4.84c0.9-2.04,2.64-4.28,4.6-5.15c2.63-1.17,5.11,0.45,6.5,3.01
		c2.5,4.59,4.89,9.24,7.5,14.19c0.59-0.89,1.04-1.54,1.47-2.2c3.28-5,7.92-7.1,13.81-6.19c5.8,0.89,11.57,1.91,17.35,2.95
		c8.18,1.47,12.34,6.38,12.55,14.72c0.22,8.84-3.44,13.91-11.54,15.93c-2.78,0.69-5.59,1.3-8.39,1.93
		c-2.79,0.62-5.58,1.22-8.65,1.89c2.45,3.92,4.77,7.59,7.03,11.29c0.91,1.49,1.68,3.06,2.55,4.57c6.75,11.65,9.95,23.84,9.7,37.66
		c-0.72,38.66-0.4,77.33-0.14,116c0.06,8.51-2.36,14.79-10.5,18.17c-12,0-24,0-36,0c-8.03-2.9-11.37-8.64-10.79-17.07
		c0.32-4.59-0.18-9.24,0.13-13.83c0.23-3.44-1.06-4.1-4.25-4.09c-74.08,0.09-148.16,0.06-222.24,0.07c-1.33,0-2.65,0.13-4.21,0.21
		c0,6.13-0.29,11.87,0.07,17.57c0.54,8.42-2.72,14.18-10.71,17.15C271.67,479.93,259.67,479.93,247.67,479.93z M249.2,437.36
		c0,9.12,0.02,18.45-0.02,27.78c-0.01,2.1,0.98,2.84,3,2.83c9.12-0.05,18.24,0.03,27.36-0.1c0.91-0.01,2.57-1.15,2.59-1.79
		c0.19-6.92,0.12-13.84,0.12-20.51c-6.1-0.64-11.8-0.63-17.17-1.96C259.73,442.27,254.72,439.59,249.2,437.36z M536.97,444.94
		c0,7.21-0.09,13.91,0.11,20.6c0.03,0.83,1.6,2.29,2.48,2.31c9.22,0.17,18.45,0.17,27.68,0.01c0.94-0.02,2.65-1.4,2.67-2.18
		c0.19-9.51,0.12-19.03,0.12-29.44C559.85,443.74,548.88,445.67,536.97,444.94z M581.3,273.11c-2.2-1.73-3.23-3.15-4.5-3.43
		c-5.21-1.15-10.49-2.05-15.78-2.79c-1.02-0.14-2.71,0.55-3.19,1.38c-1.37,2.33-2.43,4.89-3.34,7.45c-1.04,2.9,1.42,5.72,4.37,5.1
		c5.96-1.24,11.93-2.46,17.82-3.98C578.04,276.48,579.1,274.93,581.3,273.11z M239.6,273.21c-0.43,2.32,0.8,3.31,2.97,3.76
		c5.84,1.22,11.64,2.61,17.5,3.76c1.1,0.22,3.01-0.03,3.43-0.73c0.79-1.31,1.3-3.23,0.96-4.67c-0.56-2.37-1.67-4.71-2.98-6.78
		c-0.59-0.92-2.31-1.77-3.39-1.63c-5.17,0.69-10.28,1.83-15.44,2.58C240.3,269.84,239.28,270.84,239.6,273.21z"/>
	<path fill="#ffffff" d="M562.92,200.84c0,21.9-17.64,39.61-39.42,39.6c-22.29-0.01-39.98-17.74-39.87-39.96c0.11-21.7,18-39.36,39.83-39.3
		C545.24,161.25,562.92,179.01,562.92,200.84z M550.93,200.87c-0.02-15.28-12.34-27.67-27.55-27.7
		c-15.37-0.02-27.81,12.47-27.76,27.89c0.06,15.23,12.41,27.44,27.75,27.42C538.66,228.46,550.95,216.15,550.93,200.87z"/>
	<path fill="#ffffff" d="M591.6,143.57c-0.48,15.66-6.14,27.81-17.41,37.25c-3.87,3.25-7.39,3.27-9.83,0.23c-2.32-2.89-1.56-6.14,2.09-9.32
		c11.41-9.96,15.73-22.47,11.73-36.99c-4-14.54-14.16-23.11-29.07-25.74c-23.61-4.16-44.39,17.49-40.09,41.76
		c0.61,3.47,0.09,6.27-3.2,7.91c-3.71,1.85-7.45-0.48-8.47-5.07c-4.3-19.45,4.89-40.35,22.67-50.41
		c15.94-9.01,32.28-9.08,48.09,0.18C583.69,112.49,591.06,126.7,591.6,143.57z"/>
	<path fill="#ffffff" d="M271.02,333.22c0.4-1.71,0.86-5.08,2-8.19c2.06-5.64,5.88-8.22,11.81-7.78c11.07,0.83,22.13,1.84,33.15,3.14
		c2.23,0.26,5.09,1.63,6.24,3.4c6.56,10.12,12.91,20.38,18.84,30.87c2.35,4.16-1.39,8.49-6.5,7.91c-7.81-0.89-15.58-2.08-23.37-3.18
		c-8.03-1.13-16.03-2.58-24.09-3.36C277.25,354.88,271.37,347.13,271.02,333.22z M327.02,349.19c-3.92-6.02-7.24-11.25-10.75-16.35
		c-0.51-0.74-1.87-1.15-2.88-1.24c-8.95-0.81-17.9-1.54-26.86-2.23c-0.8-0.06-2.34,0.24-2.36,0.47c-0.25,3.29-0.83,6.7-0.17,9.84
		c0.34,1.62,2.81,3.6,4.62,3.97c6.46,1.33,13.05,2.07,19.59,2.99C314.12,347.47,320.01,348.24,327.02,349.19z"/>
	<path fill="#ffffff" d="M532.61,317.08c13.5-0.26,19.86,8.19,17.08,22.99c-1.76,9.36-6.86,14.36-16.42,15.75c-15.67,2.27-31.36,4.42-47.03,6.64
		c-2.98,0.42-5.81,0.45-7.63-2.48c-1.67-2.69-0.86-5.22,0.63-7.71c5.18-8.64,10.28-17.33,15.53-25.93c2.4-3.93,5.85-6.11,10.68-6.49
		C514.52,319.14,523.56,318.02,532.61,317.08z M494.43,348.8c1.87,0,2.75,0.1,3.59-0.02c10.86-1.52,21.73-3.02,32.57-4.62
		c6.36-0.94,9.75-7.5,6.92-13.41c-0.34-0.72-1.72-1.41-2.57-1.35c-9.08,0.64-18.15,1.38-27.21,2.23c-1.08,0.1-2.47,0.76-3.06,1.62
		C501.31,338.13,498.12,343.15,494.43,348.8z"/>
	<path fill="#ffffff" d="M489.58,157.63c0.06,16.48-13.48,30.13-29.95,30.18c-16.63,0.05-30.33-13.6-30.34-30.23
		c-0.01-16.36,13.76-30.02,30.19-29.97C476.06,127.66,489.52,141.09,489.58,157.63z M441.31,157.17
		c-0.31,9.83,7.57,18.16,17.62,18.62c9.77,0.44,18.26-7.57,18.61-17.56c0.35-10.03-7.71-18.4-17.93-18.62
		C449.98,139.42,441.62,147.44,441.31,157.17z"/>
	<path fill="#ffffff" d="M409.65,324.98c17.36,0,34.72,0,52.08,0c1.25,0,2.54-0.13,3.73,0.14c3.02,0.67,4.85,2.63,4.89,5.76
		c0.05,3.15-1.76,5.13-4.75,5.89c-1.18,0.3-2.48,0.17-3.73,0.17c-34.85,0.01-69.69,0.01-104.54,0c-1.12,0-2.28,0.11-3.36-0.12
		c-3.19-0.67-5.11-2.63-5.04-5.99c0.07-3.35,2.04-5.24,5.26-5.79c1.09-0.19,2.24-0.07,3.37-0.08
		C374.92,324.98,392.28,324.98,409.65,324.98z"/>
	<path fill="#ffffff" d="M409.48,224.67c-13.09-0.06-23.8-10.81-23.75-23.84c0.05-13.2,11.03-24,24.21-23.81c13.05,0.18,23.74,11.09,23.58,24.07
		C433.36,214.15,422.57,224.73,409.48,224.67z M409.53,189.01c-6.54,0.09-11.9,5.56-11.8,12.03c0.1,6.52,5.61,11.8,12.14,11.65
		c6.38-0.14,11.6-5.44,11.63-11.81C421.54,194.45,415.96,188.91,409.53,189.01z"/>
	<path fill="#ffffff" d="M375.97,241.35c-0.03,12.95-10.64,23.46-23.65,23.42c-12.96-0.04-23.59-10.64-23.6-23.55
		c-0.01-12.95,10.57-23.54,23.53-23.57C365.49,217.61,376,228.12,375.97,241.35z M352.27,229.65c-6.45,0.05-11.66,5.35-11.53,11.74
		c0.13,6.38,5.54,11.54,11.94,11.39c6.25-0.15,11.3-5.35,11.28-11.61C363.94,234.66,358.81,229.6,352.27,229.65z"/>
	<path fill="#ffffff" d="M409.28,369.8c-12.86,0-25.73,0.01-38.59-0.02c-1.36,0-2.78-0.05-4.05-0.46c-2.83-0.9-4.33-3.04-4.09-5.97
		c0.25-3.06,2.06-5,5.21-5.45c0.86-0.12,1.75-0.07,2.62-0.07c26.1,0,52.21,0,78.31,0c0.75,0,1.5-0.03,2.25,0.04
		c3.33,0.28,5.83,2.66,5.76,5.74c-0.07,3.27-1.88,5.36-5.09,6.03c-1.2,0.25-2.49,0.16-3.73,0.16
		C435.01,369.8,422.15,369.8,409.28,369.8z"/>
	<path fill="#ffffff" d="M378.21,176.06c-0.07-8.22,5.04-15.55,12.76-18.37c7.58-2.77,16.16-0.55,21.41,5.53c2.8,3.25,2.88,6.9,0.19,9.28
		c-2.55,2.26-6.05,1.93-8.91-1.05c-2.6-2.71-5.53-3.83-9.06-2.22c-3.33,1.52-4.68,4.27-4.38,7.88c0.45,5.37-1.33,8.29-5.21,8.56
		c-3.75,0.26-6.37-2.72-6.8-7.75C378.16,177.31,378.21,176.68,378.21,176.06z"/>
	<path fill="#ffffff" d="M470.92,214.21c-10.28-0.74-18.39-1.23-26.48-1.93c-4.55-0.39-6.78-2.83-6.48-6.55c0.3-3.67,3.09-5.66,7.55-5.34
		c7.97,0.58,15.94,1.17,23.92,1.76c4.47,0.33,7.04,2.64,6.94,6.19C476.26,212.07,473.32,214.3,470.92,214.21z"/>
</g>
</svg>
