<?xml version="1.0" encoding="utf-8"?>
<!-- Generator: Adobe Illustrator 25.4.1, SVG Export Plug-In . SVG Version: 6.00 Build 0)  -->
<svg width="140" height="100" version="1.1" id="Layer_1" xmlns="http://www.w3.org/2000/svg" xmlns:xlink="http://www.w3.org/1999/xlink" x="0px" y="0px"
	 viewBox="0 0 841.89 595.28" style="enable-background:new 0 0 841.89 595.28;" xml:space="preserve">
<g>
	<path fill="#ffffff" d="M581.43,155.82c0,10.98,0,21.96,0,32.94c-5.7-1.1-11.39-2.21-17.4-3.37c-0.15,1.51-0.35,2.59-0.35,3.67
		c-0.01,59.63-0.03,119.26,0.06,178.9c0,1.55,0.78,3.38,1.79,4.59c7.4,8.86,4.41,21.37-6.25,25.63c-0.73,0.29-1.41,0.69-2.44,1.21
		c11.03,10.03,13.34,22.75,12.94,36.41c-0.14,4.86-0.44,9.73-0.34,14.59c0.23,11.08-3.45,15.48-14.27,16.89
		c-0.86,0.11-2.19,1.29-2.25,2.04c-0.43,6.01-0.6,12.03-0.87,18.54c9.2,0,18.73,0,28.2,0c0,3.8,0,7.1,0,10.34
		c-127.44,0-254.6,0-381.74,0c0-3.54,0-6.75,0-10.45c3.24,0,6.33,0,9.41,0c3.17,0,6.34,0,8.92,0c-0.24-5.92-0.63-11.23-0.58-16.54
		c0.03-3.05-0.88-4.06-4-4.13c-7.28-0.16-12.97-5.96-13.11-13.22c-0.16-8.47-0.27-16.96,0.01-25.43
		c0.35-10.55,3.59-20.07,11.39-27.63c0.42-0.41,0.73-0.93,1.26-1.6c-0.87-0.4-1.5-0.73-2.17-0.99c-7.46-2.89-11.51-9.66-10.21-17.08
		c1.52-8.67,6.92-13.36,15.66-13.5c4.49-0.07,8.99-0.15,13.47,0.03c2.54,0.1,3.76-0.73,4.53-3.23c2.49-8.09,5.24-16.09,7.91-24.12
		c0.31-0.94,0.54-2.5,1.11-2.65c2.99-0.81,2.34-3.08,2.34-5.07c0.01-47.53,0.01-95.06,0-142.59c0-1.42-0.21-2.84-0.36-4.64
		c-5.91,1.21-11.34,2.32-17.27,3.53c0-1.7,0-2.91,0-4.13c0-8.23,0.24-16.48-0.11-24.7c-0.16-3.69,1.17-4.81,4.52-5.53
		c56.93-12.25,113.84-24.63,170.76-36.92c1.39-0.3,2.96-0.29,4.35,0.01c42.58,9.22,85.14,18.47,127.71,27.76
		C549.86,148.8,565.64,152.33,581.43,155.82z M255.01,337.12c2.21,0,3.81,0,5.41,0c83.19,0,166.39,0,249.58,0
		c4.74,0,9.48,0.08,14.22-0.04c1.94-0.05,2.85,0.58,3.43,2.49c1.71,5.59,3.62,11.12,5.51,16.66c1.24,3.63,1.57,8.68,4.13,10.46
		c2.75,1.91,7.65,0.61,11.6,0.95c3.25,0.29,4.26-0.82,4.26-4.17c-0.1-59-0.09-117.99-0.01-176.99c0-2.77-0.86-3.95-3.53-4.53
		c-47.06-10.17-94.1-20.43-141.16-30.6c-2.23-0.48-4.73-0.74-6.93-0.26c-47.08,10.15-94.12,20.43-141.19,30.65
		c-6.6,1.43-5.29,0.89-5.29,6.64c-0.05,47.77-0.03,95.54-0.03,143.31C255.01,333.29,255.01,334.89,255.01,337.12z M302.27,456.61
		c21.94,0,43.88,0,65.82,0c7.23,0,14.46-0.07,21.69,0.02c3.28,0.04,4.85-1.26,4.78-4.63c-0.12-5.73-0.08-11.47-0.14-17.2
		c-0.04-3.74,0.24-7.52-0.3-11.19c-1.2-8.24-6.03-14.24-12.53-19.17c-4.9-3.72-9.93-5.59-16.38-5.55
		c-41.64,0.31-83.28,0.38-124.91-0.04c-7.75-0.08-13.66,2.36-19.25,7.02c-7.32,6.1-11.33,13.67-11.11,23.4
		c0.16,6.98-0.04,13.96-0.05,20.94c-0.01,5.95,0.44,6.4,6.35,6.4C244.92,456.62,273.59,456.61,302.27,456.61z M367.74,388.22
		c-0.43-1.58-0.64-2.53-0.94-3.46c-3.7-11.23-7.5-22.42-11.04-33.7c-0.8-2.56-2.05-3.14-4.52-3.13c-32.68,0.07-65.36,0.08-98.04,0
		c-2.49-0.01-3.7,0.6-4.5,3.15c-3.57,11.4-7.41,22.71-11.14,34.06c-0.29,0.89-0.42,1.83-0.7,3.08
		C280.58,388.22,323.89,388.22,367.74,388.22z M237.7,175.45c1.39-0.23,2.35-0.34,3.3-0.55c53.6-11.63,107.2-23.27,160.82-34.87
		c1.4-0.3,2.98-0.39,4.37-0.09c46.08,9.98,92.16,20.02,138.23,30.04c8.48,1.85,16.98,3.63,25.97,5.56c0-2.88-0.21-5.37,0.05-7.81
		c0.31-2.84-0.91-3.88-3.54-4.45c-53.5-11.54-106.98-23.15-160.48-34.69c-1.51-0.33-3.21-0.33-4.72,0
		c-39.04,8.44-78.06,16.96-117.08,25.44c-14.35,3.12-28.71,6.13-43.04,9.33c-1.41,0.31-3.53,1.48-3.7,2.52
		C237.38,168.9,237.7,172.05,237.7,175.45z M405.35,456.38c1.73,0.11,3.2,0.28,4.67,0.29c17.71,0.05,35.42,0.11,53.13,0.09
		c4.11-0.01,8.21-0.37,12.32-0.48c2.7-0.07,3.63-1.35,3.59-4.02c-0.12-7.86-0.05-15.71-0.05-23.57c0-8.9-3.44-16.24-10.22-21.93
		c-2.66-2.23-5.55-4.25-8.52-6.05c-1.5-0.91-3.42-1.57-5.15-1.58c-19.58-0.11-39.16-0.07-58.74-0.06c-1.01,0-2.02,0.19-3.96,0.39
		c11.59,10.82,13.59,23.94,12.98,37.97C405.13,443.63,405.35,449.85,405.35,456.38z M476.98,399.05c1.52,1.76,2.31,2.68,3.11,3.59
		c5.1,5.77,8.29,12.51,9.04,20.14c0.56,5.81,0.41,11.69,0.49,17.54c0.07,5.3,0.01,10.6,0.01,16.06c1.77,0.12,3,0.28,4.22,0.28
		c18.46,0.03,36.93,0.07,55.39,0.04c2.24,0,4.47-0.36,6.71-0.5c2.12-0.14,3.08-1.17,3.07-3.36c-0.03-7.61,0.18-15.22,0.03-22.82
		c-0.23-11.02-4.23-20.14-13.97-26.14c-1.17-0.72-2.16-1.81-3.4-2.29c-2.57-1-5.25-2.4-7.9-2.43c-16.34-0.22-32.68-0.11-49.03-0.11
		C482.54,399.05,480.32,399.05,476.98,399.05z M452.2,388.25c-0.44-1.67-0.67-2.75-1.01-3.79c-3.62-10.98-7.38-21.92-10.82-32.96
		c-0.87-2.8-2.14-3.6-4.96-3.58c-21.68,0.11-43.37,0.06-65.05,0.06c-1.22,0-2.45,0-4.33,0c1.95,5.92,3.85,11.28,5.45,16.72
		c0.65,2.2,1.72,2.99,3.96,2.94c4.86-0.11,9.72-0.12,14.58,0.02c7.36,0.21,13.09,4.8,14.69,12.01c0.6,2.7,0.39,5.58,0.57,8.59
		C420.66,388.25,436.17,388.25,452.2,388.25z M532.37,388.24c-4.19-12.69-8.27-24.69-12.06-36.78c-0.88-2.81-2.19-3.56-4.99-3.54
		c-20.19,0.12-40.39,0.06-60.58,0.06c-1.22,0-2.43,0-3.74,0c0,0.77-0.09,1.16,0.01,1.48c1.64,5.09,3.39,10.14,4.9,15.27
		c0.64,2.19,1.77,2.96,4,2.91c4.98-0.11,9.97-0.13,14.96,0.04c7.18,0.25,13.13,5.31,14.36,12.38c0.45,2.6,0.07,5.35,0.07,8.18
		C503.7,388.24,517.72,388.24,532.37,388.24z M350.3,487.49c-0.26-5.65-0.74-11.07-0.67-16.48c0.04-3.24-1.13-3.93-4.11-3.9
		c-12.58,0.14-25.17,0.06-37.75,0.06c-16.45,0-32.89,0.03-49.34-0.03c-2.4-0.01-3.59,0.46-3.59,3.26c0,5.64-0.41,11.29-0.65,17.1
		C286.12,487.49,318.45,487.49,350.3,487.49z M434.69,487.47c-0.21-5.92-0.51-11.59-0.58-17.26c-0.03-2.23-0.77-3.13-3.05-3.07
		c-3.98,0.11-7.97,0.03-11.96,0.03c-6.1,0-12.21,0-18.31,0c-3.27,0-6.57-0.2-9.81,0.12c-0.98,0.1-2.52,1.57-2.59,2.51
		c-0.44,5.86-0.54,11.74-0.76,17.68C403.3,487.47,419.3,487.47,434.69,487.47z M514.69,487.5c-0.21-5.77-0.44-11.32-0.6-16.88
		c-0.05-1.85-0.03-3.48-2.67-3.46c-11.96,0.06-23.93,0.05-35.89-0.01c-2.13-0.01-2.76,0.89-2.8,2.92
		c-0.11,5.77-0.39,11.53-0.62,17.43C486.22,487.5,500.75,487.5,514.69,487.5z M462.2,474.66c-0.02,0-0.05,0-0.07,0
		c0-1.24-0.1-2.49,0.02-3.72c0.28-2.85-0.76-4.02-3.77-3.82c-3.58,0.24-7.2,0.13-10.79,0.03c-2-0.05-3.03,0.61-2.96,2.74
		c0.11,3.35-0.07,6.71,0.25,10.04c0.47,4.99,3.8,7.76,8.74,7.68c4.72-0.08,7.84-2.95,8.32-7.74
		C462.12,478.14,462.12,476.4,462.2,474.66z M243.98,467.21c-5.4,0-10.34-0.07-15.27,0.08c-0.67,0.02-1.86,1.11-1.86,1.7
		c0,4.32-0.14,8.71,0.54,12.95c0.62,3.83,4.52,5.92,8.9,5.65c4.03-0.25,7.35-2.94,7.62-6.81
		C244.21,476.48,243.98,472.14,243.98,467.21z M360.43,474.58c0,1.86-0.12,3.73,0.03,5.58c0.29,3.69,2.86,6.56,6.36,7.31
		c3.76,0.81,8.56-0.45,9.3-3.64c1.18-5.06,1-10.44,1.4-15.68c-3.1-0.33-6.21-0.65-9.31-0.98c-0.12-0.01-0.25,0-0.37,0
		C360.33,467.17,360.33,467.17,360.43,474.58z M533.39,467.19c-2.11,0-4.25-0.2-6.32,0.09c-0.9,0.13-2.36,1.24-2.38,1.94
		c-0.12,3.95-0.24,7.97,0.34,11.86c0.69,4.56,4.5,6.9,9.36,6.49c4.25-0.36,7.23-3.41,7.53-7.78c0.09-1.36,0.07-2.73,0.07-4.1
		C542,467.17,542,467.17,533.39,467.19z M228.46,378.09c-4.2,0-7.65,0-11.11,0c-0.87,0-1.91-0.26-2.56,0.12
		c-1.61,0.94-3.69,1.91-4.35,3.4c-0.58,1.33,0.1,3.62,0.93,5.07c1.05,1.84,11.76,2.68,13.46,1.35c0.36-0.29,0.64-0.77,0.79-1.22
		C226.53,384.16,227.37,381.48,228.46,378.09z M376.05,378.17c1.02,3.24,1.71,5.88,2.73,8.38c0.34,0.82,1.51,1.77,2.37,1.83
		c2.85,0.2,5.74,0.19,8.59-0.05c3.03-0.25,4.76-2.05,4.7-5.2c-0.06-2.99-1.88-4.72-4.66-4.88
		C385.43,377.99,381.07,378.17,376.05,378.17z M540.46,378.29c1.06,3.27,1.87,6.09,2.93,8.82c0.24,0.61,1.3,1.26,2,1.28
		c3.1,0.08,6.22,0.1,9.3-0.18c2.78-0.25,4.16-2.25,4.2-4.87c0.04-2.65-1.44-4.78-4.11-4.96
		C550.25,378.07,545.68,378.29,540.46,378.29z M460.49,378.16c1.06,3.35,1.74,6,2.77,8.49c0.33,0.8,1.57,1.67,2.44,1.73
		c2.85,0.19,5.73,0.16,8.58-0.07c2.88-0.23,4.59-2.01,4.64-4.9c0.05-3.09-1.79-5.01-4.77-5.18
		C469.82,377.98,465.48,378.16,460.49,378.16z"/>
	<path fill="#ffffff" d="M533.23,317.91c-86.36,0-172.26,0-258.42,0c-0.08-1.37-0.22-2.57-0.22-3.78c-0.01-32.92,0.04-65.85-0.08-98.77
		c-0.01-3.38,0.86-4.46,4.34-4.46c83.43,0.09,166.87,0.07,250.3,0.05c2.56,0,4.44-0.06,4.42,3.59
		c-0.13,33.42-0.07,66.85-0.09,100.27C533.49,315.77,533.33,316.74,533.23,317.91z M357.01,221.6c-1.72,0-2.94,0-4.17,0
		c-21.08,0-42.16,0.09-63.24-0.08c-3.7-0.03-4.55,1.16-4.53,4.67c0.14,25.57,0.07,51.14,0.08,76.71c0,1.34,0.15,2.68,0.23,4.04
		c24.1,0,47.84,0,71.63,0C357.01,278.47,357.01,250.32,357.01,221.6z M439.88,307.08c0.09-1.04,0.2-1.65,0.2-2.25
		c0.01-26.68-0.03-53.36,0.07-80.05c0.01-2.83-1.21-3.22-3.59-3.21c-21.57,0.06-43.14,0.1-64.71-0.03
		c-3.19-0.02-3.94,1.03-3.93,4.06c0.11,25.93,0.06,51.87,0.07,77.8c0,1.2,0.12,2.39,0.18,3.69
		C392.24,307.08,415.89,307.08,439.88,307.08z M522.67,307.06c0.11-1.24,0.3-2.32,0.3-3.41c0.02-26.07-0.04-52.15,0.08-78.22
		c0.01-3.26-1.21-3.91-4.16-3.89c-21.33,0.1-42.67,0.05-64,0.06c-1.2,0-2.41,0.13-3.72,0.21c0,28.58,0,56.82,0,85.25
		C475.07,307.06,498.72,307.06,522.67,307.06z"/>
	<path fill="#ffffff" d="M342.45,445.82c-2.86-16.7,5.35-29.7,20.39-32.65c10.17-2,19,3.94,20.67,13.89c1.51,9-5.19,17.84-15.09,18.61
		C359.79,446.36,351.07,445.82,342.45,445.82z M353.28,435.13c4.89,0,9.49,0.15,14.09-0.05c3.35-0.15,5.49-2.74,5.41-5.97
		c-0.07-3.27-2.23-5.3-5.83-5.48C360.55,423.3,354.77,427.96,353.28,435.13z"/>
	<path fill="#ffffff" d="M262.47,445.62c-9.33,0-18.07,0.62-26.69-0.17c-9.23-0.85-15.47-9.68-14.09-18.3c1.5-9.36,9.8-15.58,19.12-14.31
		c12.71,1.72,21.51,11.66,21.66,24.49C262.49,440.05,262.47,442.77,262.47,445.62z M251.2,435.07c-0.74-6.94-6.88-11.98-13.51-11.45
		c-3.22,0.26-4.95,2.09-5.22,5.24c-0.27,3.16,1.62,5.95,4.68,6.14C241.8,435.28,246.49,435.07,251.2,435.07z"/>
	<path fill="#ffffff" d="M331.16,435.48c0,3.37,0,6.66,0,10.23c-19.24,0-38.35,0-57.78,0c0-3.34,0-6.62,0-10.23
		C292.5,435.48,311.7,435.48,331.16,435.48z"/>
	<path d="M283.34,426.51c-3.42,0-6.5,0-10.23,0c0-2.93-0.11-5.86,0.09-8.77c0.04-0.59,1.23-1.45,1.99-1.58
		c7.55-1.29,8.55-0.39,8.37,7.33C283.55,424.35,283.45,425.21,283.34,426.51z"/>
	<path fill="#ffffff" d="M307.77,426.52c-4.07,0-7.14,0-11.1,0c0.42-3.54-0.14-7.52,1.56-9.89c0.99-1.39,7.12-1.36,8.18,0.07
		C308.07,418.94,307.41,422.91,307.77,426.52z"/>
	<path fill="#ffffff" d="M331.7,426.53c-4.04,0-7.12,0-11.1,0c0.41-3.54-0.16-7.51,1.53-9.89c0.99-1.39,7.11-1.38,8.18,0.04
		C331.97,418.92,331.32,422.89,331.7,426.53z"/>
	<path fill="#ffffff" d="M330.53,358.2c2.16,2.89,4.15,5.55,6.39,8.56c-7.32,5.51-14.45,10.88-22.02,16.58c-2.12-2.8-4.18-5.52-6.49-8.56
		C315.81,369.23,323.03,363.82,330.53,358.2z"/>
	<path fill="#ffffff" d="M297.14,355.39c2.19,2.91,4.13,5.47,6.44,8.54c-7.29,5.48-14.47,10.88-22.06,16.59c-2.16-2.86-4.2-5.57-6.45-8.56
		C282.45,366.42,289.57,361.07,297.14,355.39z"/>
	<path fill="#ffffff" d="M426.78,445.63c-1.47-12.37,1-22.86,12.31-29.54c4.61-2.73,9.7-4.03,15.04-3.12c8.24,1.42,14.11,8.49,14,16.48
		c-0.11,8.13-5.89,15.32-14.31,16.01C444.95,446.2,435.98,445.63,426.78,445.63z M437.9,435.08c4.83,0,9.65,0.26,14.43-0.1
		c3.02-0.22,4.84-2.44,4.94-5.58c0.09-3.01-1.57-4.92-4.42-5.62C446.39,422.19,438.64,427.96,437.9,435.08z"/>
	<path fill="#ffffff" d="M520.32,445.99c-3.73,0-7.47,0.11-11.19-0.08c-0.92-0.05-2.52-1.03-2.58-1.69c-0.85-9.67,0.55-18.73,8.57-25.36
		c6.15-5.08,13.17-7.52,21.16-5.33c7.29,2,12.02,9.02,11.6,16.72c-0.42,7.6-5.65,13.97-13.06,15.11c-4.76,0.73-9.65,0.61-14.48,0.88
		C520.33,446.15,520.33,446.07,520.32,445.99z M517.9,435.16c3.86,0,7.69,0.01,11.51,0c1,0,2.03,0.09,2.98-0.13
		c3.03-0.7,4.82-2.67,4.87-5.78c0.04-2.81-1.57-4.69-4.28-5.43C526.58,422.06,518.55,427.91,517.9,435.16z"/>
</g>
</svg>
