<?xml version="1.0" encoding="utf-8"?>
<!-- Generator: Adobe Illustrator 25.4.1, SVG Export Plug-In . SVG Version: 6.00 Build 0)  -->
<svg version="1.1" id="Layer_1" xmlns="http://www.w3.org/2000/svg" xmlns:xlink="http://www.w3.org/1999/xlink" x="0px" y="0px"
	 viewBox="0 0 841.89 595.28" style="enable-background:new 0 0 841.89 595.28;" xml:space="preserve">
<g>
	<path fill="#76345A"  d="M400.76,468.51c-53.66,0-107.32,0-160.98,0c-1.25,0-2.5,0.02-3.74-0.01c-4.81-0.12-7.51-2.44-7.53-6.44
		c-0.01-3.95,2.83-6.46,7.48-6.52c3.24-0.04,6.52,0.25,9.72-0.1c1.95-0.21,4.25-0.88,5.62-2.16c17.82-16.57,35.53-33.25,53.15-50.02
		c1.39-1.33,2.42-3.48,2.76-5.4c3.81-21.35,7.4-42.73,11.25-64.07c0.38-2.13,1.7-4.49,3.3-5.94c11.23-10.09,22.64-19.98,34.01-29.91
		c4.68-4.09,8.88-3.46,11.98,1.95c15.95,27.78,31.87,55.58,47.77,83.39c2.44,4.26,1.63,7.98-1.98,9.95
		c-3.65,1.99-6.97,0.77-9.53-3.65c-13.63-23.5-27.24-47.03-40.85-70.54c-3.59-6.2-4.37-6.33-9.62-1.69
		c-6.74,5.94-13.58,11.77-20.17,17.87c-1.5,1.39-2.75,3.6-3.1,5.61c-3.56,20.76-6.81,41.57-10.42,62.32c-0.47,2.72-2,5.72-3.97,7.63
		c-12.98,12.6-26.22,24.93-39.37,37.36c-0.73,0.68-1.54,1.31-2.13,2.09c-1.74,2.27-0.77,4.82,2.02,5.33
		c0.97,0.18,1.99,0.11,2.99,0.11c50.17,0,100.33,0,150.5,0c0.62,0,1.25,0.02,1.87-0.01c3.68-0.21,4.87-2.08,3.3-5.46
		c-4.46-9.61-9-19.17-13.49-28.76c-2.43-5.19-2.16-6.82,1.87-10.97c13.9-14.33,27.74-28.72,41.81-42.88
		c2.8-2.81,3.23-5.26,2.17-8.91c-10.9-37.43-21.65-74.9-32.45-112.36c-0.24-0.84-0.29-1.84-0.8-2.47c-0.79-0.99-1.84-2.28-2.89-2.4
		c-1.06-0.12-2.7,0.74-3.34,1.68c-2.03,2.98-3.71,6.2-5.52,9.33c-9.72,16.84-19.44,33.68-29.17,50.52
		c-0.68,1.18-1.36,2.41-2.25,3.43c-2.25,2.6-5.64,3.13-8.44,1.31c-2.85-1.86-3.83-4.54-2.78-7.78c0.42-1.28,1.18-2.46,1.87-3.64
		c15.28-26.15,30.6-52.28,45.8-78.49c1.06-1.82,1.68-4.17,1.7-6.28c0.13-17.09,0.05-34.19,0.09-51.28c0.02-5.78,4.57-9.2,9.35-7.1
		c2.81,1.23,4.1,3.51,4.09,6.55c0,3.62-0.04,7.24,0.02,10.85c0.07,4.26,2.08,5.58,6.04,3.86c9.26-4.01,18.52-8.02,27.68-12.25
		c1.45-0.67,3.11-2.38,3.3-3.79c0.13-0.99-1.87-2.76-3.28-3.38c-14.01-6.2-28.11-12.21-42.16-18.31c-4.45-1.93-5.89-5.06-4.23-8.85
		c1.74-3.94,5.41-5.12,10.1-3.07c12.79,5.57,25.56,11.19,38.34,16.79c7.87,3.45,15.74,6.91,23.63,10.32
		c3.13,1.35,5.81,2.97,5.82,6.92c0.01,3.94-2.64,5.59-5.78,6.94c-18.42,7.93-36.8,15.97-55.28,23.77c-3.18,1.34-4.35,3.09-4.17,6.46
		c0.25,4.6,0.34,9.25-0.02,13.84c-0.37,4.7,1.16,8.18,4.37,11.65c11.69,12.64,23.11,25.53,34.54,38.4c1.63,1.83,3.05,3.97,4.06,6.2
		c28.87,63.64,57.68,127.32,86.49,190.99c3.4,7.52,0.82,11.5-7.44,11.5C510.08,468.51,455.42,468.51,400.76,468.51z M502.84,455.53
		c15.09,0,30.18,0,45.28,0c6.44,0,7.59-1.78,4.93-7.69c-24.93-55.41-50.08-110.72-74.6-166.31c-4.95-11.23-13.02-19.58-20.76-28.43
		c-0.8-0.92-3.18-1.43-4.19-0.9c-1,0.52-1.44,2.56-1.64,4c-0.15,1.02,0.5,2.15,0.81,3.23c9.71,33.86,19.33,67.76,29.24,101.56
		c1.44,4.9,0.44,8.14-3.04,11.64c-13.89,13.97-27.52,28.2-41.35,42.24c-2.26,2.29-2.76,4.28-1.3,7.24
		c4.85,9.82,9.52,19.74,14.14,29.68c1.27,2.73,3.05,3.83,6.1,3.8C471.91,455.47,487.38,455.53,502.84,455.53z"/>
</g>
</svg>
